<?xml version="1.0" encoding="UTF-8"?>
<svg viewBox="0 0 357 58" version="1.1" xmlns="http://www.w3.org/2000/svg" xmlns:xlink="http://www.w3.org/1999/xlink">
    <!-- Generator: Sketch 43.1 (39012) - http://www.bohemiancoding.com/sketch -->
    <title>New_logo</title>
    <desc>Created with Sketch.</desc>
    <defs></defs>
    <g id="Landing-page" stroke="none" stroke-width="1" fill="none" fill-rule="evenodd">
        <g id="Landing_page" transform="translate(-330.000000, -133.000000)">
            <g id="Hero_section" transform="translate(0.000000, 1.000000)">
                <g id="New_logo" transform="translate(330.000000, 132.000000)">
                    <path d="M72.2636044,20.8024421 L81.009302,20.8024421 L81.009302,55.4694173 L72.2636044,55.4694173 L72.2636044,20.8024421 Z M71.0246305,9.03011509 C71.0246305,7.63379938 71.5469378,6.41805998 72.591568,5.3828604 C73.6361983,4.34766083 74.9601865,3.83006881 76.5635724,3.83006881 C78.1669583,3.83006881 79.5152399,4.32358678 80.6084576,5.31063754 C81.7016752,6.2976883 82.2482759,7.53750175 82.2482759,9.03011509 C82.2482759,10.5227284 81.7016752,11.7625419 80.6084576,12.7495926 C79.5152399,13.7366434 78.1669583,14.2301614 76.5635724,14.2301614 C74.9601865,14.2301614 73.6361983,13.7125693 72.591568,12.6773698 C71.5469378,11.6421702 71.0246305,10.4264308 71.0246305,9.03011509 Z M100.54136,0.868931344 L100.54136,25.2080368 L100.760003,25.2080368 C101.19729,24.630251 101.756037,24.0283998 102.436261,23.4024652 C103.116486,22.7765306 103.930313,22.1987534 104.877769,21.6691165 C105.825224,21.1394795 106.930572,20.6941096 108.193846,20.3329935 C109.457119,19.9718773 110.890428,19.791322 112.493814,19.791322 C114.971774,19.791322 117.25535,20.2607659 119.34461,21.1996678 C121.433871,22.1385698 123.231579,23.4265313 124.73779,25.0635911 C126.244001,26.7006509 127.410083,28.6265747 128.236069,30.8414203 C129.062056,33.0562659 129.475043,35.4395966 129.475043,37.9914839 C129.475043,40.5433713 129.074203,42.938739 128.27251,45.177659 C127.470817,47.416579 126.329029,49.3665769 124.847112,51.0277111 C123.365194,52.6888453 121.567485,54.0129179 119.453931,54.9999686 C117.340377,55.9870194 114.947481,56.4805374 112.275171,56.4805374 C109.797211,56.4805374 107.477195,55.9509083 105.315053,54.8916343 C103.152912,53.8323604 101.464523,52.2916213 100.249837,50.269371 L100.104075,50.269371 L100.104075,55.4694173 L91.7956625,55.4694173 L91.7956625,0.868931344 L100.54136,0.868931344 Z M120.583584,37.9914839 C120.583584,36.6433171 120.37709,35.3072074 119.964097,33.9831149 C119.551104,32.6590225 118.931623,31.4673571 118.105636,30.4080831 C117.27965,29.3488091 116.235035,28.4941804 114.971761,27.8441714 C113.708487,27.1941624 112.226592,26.8691627 110.526032,26.8691627 C108.922646,26.8691627 107.489337,27.2061994 106.226064,27.8802828 C104.96279,28.5543663 103.881735,29.421032 102.982867,30.480306 C102.084,31.53958 101.403785,32.7432823 100.942205,34.0914492 C100.480624,35.4396161 100.249837,36.7877628 100.249837,38.1359297 C100.249837,39.4840966 100.480624,40.8202062 100.942205,42.1442987 C101.403785,43.4683912 102.084,44.6600565 102.982867,45.7193305 C103.881735,46.7786045 104.96279,47.6332332 106.226064,48.2832422 C107.489337,48.9332512 108.922646,49.2582509 110.526032,49.2582509 C112.226592,49.2582509 113.708487,48.9212142 114.971761,48.2471308 C116.235035,47.5730473 117.27965,46.7063816 118.105636,45.6471076 C118.931623,44.5878336 119.551104,43.3841313 119.964097,42.0359644 C120.37709,40.6877975 120.583584,39.3396508 120.583584,37.9914839 Z M138.074979,0.868931344 L146.820677,0.868931344 L146.820677,55.4694173 L138.074979,55.4694173 L138.074979,0.868931344 Z M157.607037,20.8024421 L166.352735,20.8024421 L166.352735,55.4694173 L157.607037,55.4694173 L157.607037,20.8024421 Z M156.368063,9.03011509 C156.368063,7.63379938 156.890371,6.41805998 157.935001,5.3828604 C158.979631,4.34766083 160.303619,3.83006881 161.907005,3.83006881 C163.510391,3.83006881 164.858673,4.32358678 165.95189,5.31063754 C167.045108,6.2976883 167.591709,7.53750175 167.591709,9.03011509 C167.591709,10.5227284 167.045108,11.7625419 165.95189,12.7495926 C164.858673,13.7366434 163.510391,14.2301614 161.907005,14.2301614 C160.303619,14.2301614 158.979631,13.7125693 157.935001,12.6773698 C156.890371,11.6421702 156.368063,10.4264308 156.368063,9.03011509 Z M174.952671,37.9914839 C174.952671,35.2470013 175.450685,32.7553374 176.446728,30.5164174 C177.44277,28.2774974 178.791052,26.3636106 180.491613,24.7746996 C182.192174,23.1857887 184.208523,21.9580122 186.54072,21.0913335 C188.872918,20.2246548 191.350841,19.791322 193.974563,19.791322 C196.598286,19.791322 199.076209,20.2246548 201.408406,21.0913335 C203.740604,21.9580122 205.756953,23.1857887 207.457514,24.7746996 C209.158075,26.3636106 210.506356,28.2774974 211.502399,30.5164174 C212.498442,32.7553374 212.996456,35.2470013 212.996456,37.9914839 C212.996456,40.7359665 212.498442,43.2396675 211.502399,45.5026619 C210.506356,47.7656563 209.158075,49.7036171 207.457514,51.3166025 C205.756953,52.9295879 203.740604,54.1934754 201.408406,55.1083029 C199.076209,56.0231305 196.598286,56.4805374 193.974563,56.4805374 C191.350841,56.4805374 188.872918,56.0231305 186.54072,55.1083029 C184.208523,54.1934754 182.192174,52.9295879 180.491613,51.3166025 C178.791052,49.7036171 177.44277,47.7656563 176.446728,45.5026619 C175.450685,43.2396675 174.952671,40.7359665 174.952671,37.9914839 Z M183.84413,37.9914839 C183.84413,39.3396508 184.050624,40.6877975 184.463617,42.0359644 C184.876611,43.3841313 185.496091,44.5878336 186.322078,45.6471076 C187.148065,46.7063816 188.192679,47.5730473 189.455953,48.2471308 C190.719227,48.9212142 192.225415,49.2582509 193.974563,49.2582509 C195.723712,49.2582509 197.2299,48.9212142 198.493174,48.2471308 C199.756448,47.5730473 200.801062,46.7063816 201.627049,45.6471076 C202.453035,44.5878336 203.072516,43.3841313 203.48551,42.0359644 C203.898503,40.6877975 204.104996,39.3396508 204.104996,37.9914839 C204.104996,36.6433171 203.898503,35.3072074 203.48551,33.9831149 C203.072516,32.6590225 202.453035,31.4673571 201.627049,30.4080831 C200.801062,29.3488091 199.756448,28.4941804 198.493174,27.8441714 C197.2299,27.1941624 195.723712,26.8691627 193.974563,26.8691627 C192.225415,26.8691627 190.719227,27.1941624 189.455953,27.8441714 C188.192679,28.4941804 187.148065,29.3488091 186.322078,30.4080831 C185.496091,31.4673571 184.876611,32.6590225 184.463617,33.9831149 C184.050624,35.3072074 183.84413,36.6433171 183.84413,37.9914839 Z M216.421854,27.7358371 L216.421854,20.8024421 L222.543842,20.8024421 L222.543842,10.7634638 L231.143778,10.7634638 L231.143778,20.8024421 L239.889476,20.8024421 L239.889476,27.7358371 L231.143778,27.7358371 L231.143778,43.841536 C231.143778,45.3822982 231.423152,46.6582227 231.981908,47.6693478 C232.540663,48.680473 233.791772,49.186028 235.73527,49.186028 C236.318319,49.186028 236.949946,49.1258429 237.630171,49.0054708 C238.310395,48.8850988 238.917729,48.7045434 239.452191,48.4637994 L239.743714,55.2527487 C238.966315,55.5416416 238.043167,55.770345 236.974243,55.9388659 C235.90532,56.1073867 234.884998,56.1916459 233.913249,56.1916459 C231.581052,56.1916459 229.686169,55.8666463 228.228546,55.2166372 C226.770922,54.5666282 225.616988,53.6758884 224.766707,52.5443912 C223.916427,51.412894 223.333386,50.1128955 223.017568,48.6443565 C222.701749,47.1758176 222.543842,45.5989675 222.543842,43.9137589 L222.543842,27.7358371 L216.421854,27.7358371 Z M270.863822,34.6692321 C270.863822,33.5618093 270.705915,32.5025513 270.390097,31.4914261 C270.074278,30.4803009 269.576264,29.5895612 268.89604,28.8191801 C268.215816,28.048799 267.353401,27.4349108 266.308771,26.977497 C265.264141,26.5200833 264.037326,26.2913798 262.62829,26.2913798 C260.004568,26.2913798 257.781725,27.0737864 255.959695,28.6386229 C254.137666,30.2034595 253.129492,32.2136425 252.935142,34.6692321 L270.863822,34.6692321 Z M279.60952,38.5692669 L279.60952,39.7248327 C279.60952,40.1100232 279.585226,40.495208 279.536639,40.8803985 L252.935142,40.8803985 C253.032317,42.1322678 253.360277,43.275785 253.919033,44.3109846 C254.477788,45.3461842 255.218736,46.236924 256.141898,46.9832306 C257.065059,47.7295373 258.109674,48.3193515 259.275773,48.7526908 C260.441871,49.1860302 261.656539,49.4026966 262.919813,49.4026966 C265.106249,49.4026966 266.952544,49.0054748 268.458755,48.2110193 C269.964966,47.4165638 271.203927,46.3211947 272.175677,44.924879 L278.006142,49.5471423 C274.556433,54.1694288 269.552,56.4805374 262.992694,56.4805374 C260.271797,56.4805374 257.76958,56.0592415 255.48597,55.2166372 C253.20236,54.3740329 251.222451,53.1823676 249.546184,51.6416054 C247.869917,50.1008433 246.558075,48.2110305 245.61062,45.9721105 C244.663165,43.7331905 244.189444,41.1933785 244.189444,38.3525983 C244.189444,35.5599669 244.663165,33.0201548 245.61062,30.733086 C246.558075,28.4460172 247.85777,26.4960193 249.509743,24.8830339 C251.161717,23.2700486 253.117332,22.0181981 255.376649,21.127445 C257.635965,20.2366918 260.077448,19.791322 262.701171,19.791322 C265.130543,19.791322 267.377679,20.1885438 269.442646,20.9829992 C271.507613,21.7774547 273.293175,22.9570831 274.799386,24.5219196 C276.305597,26.0867562 277.483825,28.036754 278.334105,30.3719717 C279.184386,32.7071893 279.60952,35.4395937 279.60952,38.5692669 Z M311.968601,30.4080831 C311.288377,29.4451068 310.268055,28.6386262 308.907607,27.9886171 C307.547158,27.3386081 306.162436,27.0136085 304.7534,27.0136085 C303.150014,27.0136085 301.740999,27.3386081 300.526313,27.9886171 C299.311627,28.6386262 298.303452,29.4932549 297.501759,30.5525288 C296.700066,31.6118028 296.104879,32.8034682 295.716179,34.1275607 C295.32748,35.4516531 295.133133,36.7877628 295.133133,38.1359297 C295.133133,39.4840966 295.339626,40.8202062 295.75262,42.1442987 C296.165613,43.4683912 296.785094,44.6600565 297.611081,45.7193305 C298.437067,46.7786045 299.469535,47.6332332 300.708515,48.2832422 C301.947495,48.9332512 303.39295,49.2582509 305.044924,49.2582509 C306.405372,49.2582509 307.7658,48.9934363 309.126249,48.4637994 C310.486698,47.9341624 311.579899,47.1637928 312.405886,46.1526677 L317.871947,51.6416054 C316.414323,53.1823676 314.555881,54.3740329 312.296565,55.2166372 C310.037248,56.0592415 307.595765,56.4805374 304.972043,56.4805374 C302.396908,56.4805374 299.955425,56.0712786 297.647521,55.2527487 C295.339617,54.4342188 293.323268,53.2305164 291.598413,51.6416054 C289.873559,50.0526944 288.513131,48.1267706 287.517088,45.8637762 C286.521045,43.6007818 286.023031,41.0248587 286.023031,38.1359297 C286.023031,35.3432983 286.521045,32.8155233 287.517088,30.5525288 C288.513131,28.2895344 289.861412,26.3636106 291.561973,24.7746996 C293.262534,23.1857887 295.242443,21.9580122 297.501759,21.0913335 C299.761076,20.2246548 302.178265,19.791322 304.7534,19.791322 C307.328535,19.791322 309.818605,20.2728029 312.223684,21.2357793 C314.628763,22.1987556 316.535791,23.5228282 317.944828,25.2080368 L311.968601,30.4080831 Z M343.088708,19.791322 C345.372319,19.791322 347.327934,20.1885438 348.955614,20.9829992 C350.583293,21.7774547 351.919428,22.8246758 352.964059,24.1246939 C354.008689,25.4247119 354.77393,26.9173029 355.259804,28.6025115 C355.745679,30.2877201 355.988612,32.0210515 355.988612,33.8025578 L355.988612,55.4694173 L347.242915,55.4694173 L347.242915,36.4025809 C347.242915,35.3914557 347.170035,34.3442347 347.024272,33.2608863 C346.87851,32.1775379 346.574843,31.1905019 346.113262,30.2997488 C345.651681,29.4089957 344.995761,28.6747372 344.14548,28.0969514 C343.2952,27.5191656 342.165558,27.2302771 340.756522,27.2302771 C339.347486,27.2302771 338.132818,27.4950916 337.112482,28.0247286 C336.092145,28.5543656 335.241877,29.26455 334.561653,30.1553031 C333.881429,31.0460562 333.371268,32.0451292 333.031156,33.152552 C332.691044,34.2599748 332.52099,35.391455 332.52099,36.5470266 L332.52099,55.4694173 L323.775293,55.4694173 L323.775293,0.868931344 L332.52099,0.868931344 L332.52099,25.641374 L332.666752,25.641374 C333.006864,24.9191418 333.504878,24.2089574 334.160809,23.5107995 C334.816739,22.8126417 335.58198,22.1867164 336.456554,21.633005 C337.331128,21.0792936 338.327156,20.6339237 339.444668,20.296882 C340.562179,19.9598403 341.776847,19.791322 343.088708,19.791322 Z" id="Logo" fill-opacity="0.8" fill="#000000" opacity="0.90064538"></path>
                    <path d="M17.4296661,14.1532793 C17.3846928,16.0048042 17.0177072,17.7759434 16.3691828,19.3840641 L50.9407794,19.3840641 C52.2566181,19.3840641 53.8740731,17.2140022 53.8740731,14.0586571 C53.8740731,10.9034733 52.2560925,8.73325018 50.9407794,8.73325018 L16.5482514,8.73325018 C17.1697149,10.3907281 17.4764813,12.2259299 17.4296661,14.1532793 Z M4.8448286,0.868931344 L50.9407794,0.868931344 C57.2489832,0.868931344 61.8100357,6.98674362 61.8100357,14.0586571 C61.8100357,21.1304806 57.2500588,27.2483829 50.9407794,27.2483829 L4.8448286,27.2483829 C-0.445813145,27.2483829 -0.445813145,19.3840641 4.8448286,19.3840641 C7.56258453,19.3840641 9.41829436,17.1631902 9.49600156,13.964035 C9.57318423,10.7864745 7.89080679,8.73325018 4.8448286,8.73325018 C-0.445813145,8.73325018 -0.445813145,0.868931344 4.8448286,0.868931344 Z M16.5482514,37.9654047 C17.1697149,39.6228826 17.4764813,41.4580843 17.4296661,43.3854337 C17.3846928,45.2369587 17.0177072,47.0080978 16.3691828,48.6162185 L50.9407794,48.6162185 C52.2566181,48.6162185 53.8740731,46.4461567 53.8740731,43.2908116 C53.8740731,40.1356278 52.2560925,37.9654047 50.9407794,37.9654047 L16.5482514,37.9654047 Z M4.8448286,30.1010858 L50.9407794,30.1010858 C57.2489832,30.1010858 61.8100357,36.2188981 61.8100357,43.2908116 C61.8100357,50.3626351 57.2500588,56.4805374 50.9407794,56.4805374 L4.8448286,56.4805374 C-0.445813145,56.4805374 -0.445813145,48.6162185 4.8448286,48.6162185 C7.56258453,48.6162185 9.41829436,46.3953447 9.49600156,43.1961894 C9.57318423,40.018629 7.89080679,37.9654047 4.8448286,37.9654047 C-0.445813145,37.9654047 -0.445813145,30.1010858 4.8448286,30.1010858 Z" id="Logo" fill="#FFD500" fill-rule="nonzero"></path>
                </g>
            </g>
        </g>
    </g>
</svg>